<?xml version="1.0" encoding="utf-8"?>
<svg xmlns="http://www.w3.org/2000/svg" viewBox="0 0 50 50" fill="#000000"><path fill="none" stroke="#000000" stroke-miterlimit="10" stroke-width="2" d="M3,45c-1.105,0-2,0.895-2,2s0.895,2,2,2 s2-0.895,2-2S4.105,45,3,45z M40,43c-1.657,0-3,1.343-3,3s1.343,3,3,3s3-1.343,3-3S41.657,43,40,43z"/><path fill="none" stroke="#000000" stroke-linecap="round" stroke-linejoin="round" stroke-miterlimit="10" stroke-width="2" d="M41.4,42.5l4.9-22.9 M41.8,23.8l7.2-7.2"/><path fill="none" stroke="#000000" stroke-miterlimit="10" stroke-width="2" d="M40,43c-1.7,0-36.2,2-37,2c-1.1,0-2,0.9-2,2 s0.9,2,2,2c0.9,0,35.9,0,37,0c1.7,0,3-1.3,3-3S41.7,43,40,43z"/><circle cx="26" cy="5" r="4" fill="none" stroke="#000000" stroke-miterlimit="10" stroke-width="2"/><path fill="none" stroke="#000000" stroke-miterlimit="10" stroke-width="2" d="M16.2,27.2l-2.1,3.9l-6.6-0.5 c-1.3-0.1-2.5,0.9-2.6,2.2s0.9,2.5,2.2,2.6c0,0,8.4,0.6,8.5,0.6c0.9,0,1.8-0.6,2.2-1.4l1.9-4.3"/><path fill="none" stroke="#000000" stroke-linejoin="round" stroke-miterlimit="10" stroke-width="2" d="M37,20.7 c-0.2-1-1.1-1.7-2.1-1.7h-4.6l-3.1-5c-1.1-1.8-3.42-3.009-5.62-3.009c0,0-1.699,0.048-2.896,0.407L12.2,13.6c-0.5,0.2-0.9,0.5-1.1,1 L8.3,20c-0.5,0.9-0.3,2,0.5,2.6c1,0.7,2.4,0.4,3-0.7l2.3-4.5l4.6-1.8l-2.8,8.6c-0.6,2.1,0.7,3.4,1.1,3.8l7.165,5.608l2.49,7.784 c0.301,1.063,1.714,1.757,2.776,1.456c1.063-0.301,1.885-1.481,1.584-2.544l-2.702-8.535l0.001-0.001 c-0.002-0.006-0.004-0.01-0.006-0.016c-0.255-0.798-0.733-1.36-1.116-1.676L23.1,26.9l2.4-8l1.9,3.1c0.4,0.6,1,1,1.7,1H35 C36.2,23,37.2,21.9,37,20.7z"/></svg>
